<svg width="180" height="180" viewBox="0 0 180 180" fill="none" xmlns="http://www.w3.org/2000/svg">
<circle opacity="0.5" cx="6" cy="6" r="6" fill="#0F3DE2"/>
<circle opacity="0.5" cx="6" cy="30" r="6" fill="#0F3DE2"/>
<circle opacity="0.5" cx="6" cy="102" r="6" fill="#0F3DE2"/>
<circle opacity="0.5" cx="6" cy="54" r="6" fill="#0F3DE2"/>
<circle opacity="0.5" cx="6" cy="126" r="6" fill="#0F3DE2"/>
<circle opacity="0.5" cx="6" cy="78" r="6" fill="#0F3DE2"/>
<circle opacity="0.5" cx="6" cy="150" r="6" fill="#0F3DE2"/>
<circle opacity="0.5" cx="6" cy="174" r="6" fill="#0F3DE2"/>
<circle opacity="0.5" cx="30" cy="6" r="6" fill="#0F3DE2"/>
<circle opacity="0.5" cx="30" cy="30" r="6" fill="#0F3DE2"/>
<circle opacity="0.5" cx="30" cy="102" r="6" fill="#0F3DE2"/>
<circle opacity="0.5" cx="30" cy="54" r="6" fill="#0F3DE2"/>
<circle opacity="0.5" cx="30" cy="126" r="6" fill="#0F3DE2"/>
<circle opacity="0.5" cx="30" cy="78" r="6" fill="#0F3DE2"/>
<circle opacity="0.5" cx="30" cy="150" r="6" fill="#0F3DE2"/>
<circle opacity="0.5" cx="30" cy="174" r="6" fill="#0F3DE2"/>
<circle opacity="0.5" cx="54" cy="6" r="6" fill="#0F3DE2"/>
<circle opacity="0.5" cx="54" cy="30" r="6" fill="#0F3DE2"/>
<circle opacity="0.5" cx="54" cy="102" r="6" fill="#0F3DE2"/>
<circle opacity="0.5" cx="54" cy="54" r="6" fill="#0F3DE2"/>
<circle opacity="0.5" cx="54" cy="126" r="6" fill="#0F3DE2"/>
<circle opacity="0.5" cx="54" cy="78" r="6" fill="#0F3DE2"/>
<circle opacity="0.5" cx="54" cy="150" r="6" fill="#0F3DE2"/>
<circle opacity="0.5" cx="54" cy="174" r="6" fill="#0F3DE2"/>
<circle opacity="0.5" cx="78" cy="6" r="6" fill="#0F3DE2"/>
<circle opacity="0.5" cx="78" cy="30" r="6" fill="#0F3DE2"/>
<circle opacity="0.5" cx="78" cy="102" r="6" fill="#0F3DE2"/>
<circle opacity="0.5" cx="78" cy="54" r="6" fill="#0F3DE2"/>
<circle opacity="0.5" cx="78" cy="126" r="6" fill="#0F3DE2"/>
<circle opacity="0.5" cx="78" cy="78" r="6" fill="#0F3DE2"/>
<circle opacity="0.5" cx="78" cy="150" r="6" fill="#0F3DE2"/>
<circle opacity="0.5" cx="78" cy="174" r="6" fill="#0F3DE2"/>
<circle opacity="0.5" cx="102" cy="6" r="6" fill="#0F3DE2"/>
<circle opacity="0.5" cx="150" cy="6" r="6" fill="#0F3DE2"/>
<circle opacity="0.5" cx="102" cy="30" r="6" fill="#0F3DE2"/>
<circle opacity="0.5" cx="102" cy="102" r="6" fill="#0F3DE2"/>
<circle opacity="0.5" cx="150" cy="30" r="6" fill="#0F3DE2"/>
<circle opacity="0.5" cx="150" cy="102" r="6" fill="#0F3DE2"/>
<circle opacity="0.5" cx="102" cy="54" r="6" fill="#0F3DE2"/>
<circle opacity="0.5" cx="102" cy="126" r="6" fill="#0F3DE2"/>
<circle opacity="0.5" cx="150" cy="54" r="6" fill="#0F3DE2"/>
<circle opacity="0.5" cx="150" cy="126" r="6" fill="#0F3DE2"/>
<circle opacity="0.5" cx="102" cy="78" r="6" fill="#0F3DE2"/>
<circle opacity="0.5" cx="102" cy="150" r="6" fill="#0F3DE2"/>
<circle opacity="0.5" cx="102" cy="174" r="6" fill="#0F3DE2"/>
<circle opacity="0.5" cx="150" cy="78" r="6" fill="#0F3DE2"/>
<circle opacity="0.5" cx="150" cy="150" r="6" fill="#0F3DE2"/>
<circle opacity="0.5" cx="150" cy="174" r="6" fill="#0F3DE2"/>
<circle opacity="0.5" cx="126" cy="6" r="6" fill="#0F3DE2"/>
<circle opacity="0.5" cx="174" cy="6" r="6" fill="#0F3DE2"/>
<circle opacity="0.5" cx="126" cy="30" r="6" fill="#0F3DE2"/>
<circle opacity="0.5" cx="126" cy="102" r="6" fill="#0F3DE2"/>
<circle opacity="0.5" cx="174" cy="30" r="6" fill="#0F3DE2"/>
<circle opacity="0.5" cx="174" cy="102" r="6" fill="#0F3DE2"/>
<circle opacity="0.5" cx="126" cy="54" r="6" fill="#0F3DE2"/>
<circle opacity="0.5" cx="126" cy="126" r="6" fill="#0F3DE2"/>
<circle opacity="0.5" cx="174" cy="54" r="6" fill="#0F3DE2"/>
<circle opacity="0.5" cx="174" cy="126" r="6" fill="#0F3DE2"/>
<circle opacity="0.5" cx="126" cy="78" r="6" fill="#0F3DE2"/>
<circle opacity="0.5" cx="126" cy="150" r="6" fill="#0F3DE2"/>
<circle opacity="0.5" cx="126" cy="174" r="6" fill="#0F3DE2"/>
<circle opacity="0.5" cx="174" cy="78" r="6" fill="#0F3DE2"/>
<circle opacity="0.5" cx="174" cy="150" r="6" fill="#0F3DE2"/>
<circle opacity="0.5" cx="174" cy="174" r="6" fill="#0F3DE2"/>
</svg>
