<svg width="111" height="111" viewBox="0 0 111 111" fill="none" xmlns="http://www.w3.org/2000/svg">
<g clip-path="url(#clip0_132_557)">
<path d="M80.2009 78.7141C80.2879 78.801 80.3705 78.891 80.4544 78.9801C80.4982 79.02 80.5437 79.0566 80.586 79.0989C84.1493 82.3285 88.8728 77.5086 85.5766 73.9617L84.8388 73.2239C84.8312 73.2163 84.8236 73.209 84.8162 73.2014L61.8698 50.2552L59.0311 53.0939C54.4379 57.8896 46.1875 58.0715 41.3691 53.4796C35.98 48.7433 35.8675 39.7497 41.1165 34.882L50.2606 26.0105L23.7147 9.82367C22.424 9.03664 20.7625 9.23524 19.6936 10.3041L0.959269 29.0385C-0.0571505 30.0549 -0.291959 31.6155 0.380378 32.8863L11.6373 54.1595L14.7304 51.0665C19.8467 45.9649 27.9551 46.5995 32.5732 52.0315C34.5373 53.9958 35.563 56.5471 35.6548 59.1259C38.3766 59.3479 41.0367 60.495 43.1146 62.5728L44.0805 63.5387C45.9868 65.4449 47.0728 67.9521 47.1664 70.633C57.1633 71.3743 61.8033 83.8345 54.6216 90.9568L51.1231 94.4553L57.7916 101.124C58.8167 102.149 60.286 102.568 61.7653 102.201C64.8766 101.404 65.8197 97.3784 63.6254 95.2901C62.1424 93.8071 62.1426 91.4028 63.6254 89.9198L63.6256 89.9196C65.037 88.2386 67.409 88.2337 68.9167 89.8357C70.7267 91.7473 73.9153 91.5322 75.4148 89.19C76.4442 87.604 76.1602 85.3663 74.8307 84.0845C73.3479 82.6015 73.3477 80.1973 74.8307 78.7143C76.3137 77.2315 78.7182 77.2313 80.2009 78.7141Z" fill="#14379F"/>
<path d="M12.8683 74.1464C14.0276 74.1464 15.1173 73.695 15.9369 72.8754L26.2394 62.5729C26.24 62.5722 26.2409 62.5714 26.2418 62.5707L27.2053 61.6072C28.3646 60.4477 28.3646 58.5614 27.2053 57.4019L26.2396 56.4364C24.6241 54.7529 21.718 54.7531 20.1027 56.4362L9.80018 66.7387C8.10817 68.4307 8.10838 71.1836 9.80018 72.8756C10.6195 73.695 11.7092 74.1464 12.8683 74.1464Z" fill="#14379F"/>
<path d="M95.0728 58.1486C100.407 53.163 106.25 39.6495 110.567 32.0755C111.301 30.7885 111.085 29.1702 110.031 28.1293L91.2814 9.61285C90.216 8.56065 88.5725 8.36509 87.2899 9.13781L71.3166 18.7617C68.1705 20.189 65.2459 22.0111 62.777 24.4478L46.4 40.3365C44.5502 42.0541 44.2809 45.1533 45.848 47.1644C47.674 49.6779 51.5181 49.9405 53.6598 47.7242L59.1836 42.2005C60.6663 40.7175 63.0708 40.7175 64.5536 42.2005L87.5841 65.2304L95.0728 58.1486Z" fill="#14379F"/>
<path d="M49.251 85.5868C50.9428 83.8948 50.9428 81.1419 49.251 79.4499C47.636 77.7666 44.7294 77.7668 43.1143 79.4499L32.8118 89.7524C31.12 91.4445 31.12 94.1973 32.8118 95.8893C34.5036 97.5807 37.2563 97.5813 38.9485 95.8893L49.251 85.5868Z" fill="#14379F"/>
<path d="M24.3726 85.6534C25.5319 85.6534 26.6216 85.2022 27.4411 84.3826L38.7093 73.1144C39.8628 72.0076 39.863 70.0159 38.7093 68.9093L37.7434 67.9434C36.0523 66.2523 33.3 66.2519 31.6078 67.9426L21.304 78.246C19.6122 79.938 19.6122 82.6908 21.304 84.3828C22.1236 85.2022 23.2133 85.6534 24.3726 85.6534Z" fill="#14379F"/>
<path d="M80.865 92.9576C80.9094 93.2884 80.7882 93.62 80.5408 93.8442L76.1247 97.8455C75.6078 98.3139 75.2992 98.9855 75.339 99.6819C75.4006 100.75 76.1731 101.603 77.1945 101.792L83.1152 102.874C83.4437 102.934 83.7214 103.152 83.8582 103.456L86.3021 108.9C87.0399 110.649 89.515 110.744 90.3827 109.095L93.2411 103.798C93.3997 103.505 93.6926 103.308 94.0246 103.272L100.008 102.624C101.045 102.512 101.896 101.699 102.018 100.612C102.094 99.9362 101.838 99.2646 101.368 98.7723L97.2496 94.4536C97.0193 94.212 96.9224 93.8724 96.991 93.5457L98.2236 87.6551C98.6224 85.8451 96.6885 84.3296 95.0266 85.1493L89.6006 87.7539C89.2996 87.8984 88.9469 87.8856 88.6574 87.7194L83.4806 84.7521C81.8555 83.7703 79.797 85.1482 80.0647 86.9927L80.865 92.9576Z" fill="#E54442"/>
</g>
<defs>
<clipPath id="clip0_132_557">
<rect width="111" height="111" fill="white"/>
</clipPath>
</defs>
</svg>
