<svg width="115" height="115" viewBox="0 0 115 115" fill="none" xmlns="http://www.w3.org/2000/svg">
<g clip-path="url(#clip0_132_535)">
<path d="M93.2869 16.1452C93.5258 16.3781 93.635 16.7139 93.5786 17.043L92.5713 22.9164C92.4533 23.604 92.6247 24.3229 93.0856 24.8465C93.7929 25.649 94.9274 25.8442 95.8476 25.3624L101.175 22.5618C101.471 22.4064 101.824 22.4064 102.119 22.5618L107.401 25.3384C109.06 26.2602 111.067 24.8083 110.733 22.9748L109.715 17.043C109.659 16.7139 109.768 16.3781 110.007 16.1452L114.317 11.9441C115.063 11.2162 115.232 10.0521 114.657 9.12084C114.3 8.54202 113.684 8.17142 113.011 8.07349L107.105 7.21527C106.775 7.1672 106.489 6.95967 106.342 6.66027L103.678 1.26363C102.875 -0.406999 100.418 -0.406774 99.6161 1.26363L96.9522 6.66072C96.8044 6.96012 96.519 7.16765 96.1886 7.2155L90.2836 8.07349C88.399 8.30327 87.6288 10.6576 88.9773 11.9441L93.2869 16.1452Z" fill="#E54442"/>
<path d="M112.987 94.9715L105.606 93.8992C105.314 93.8568 105.062 93.6733 104.931 93.4085L101.608 86.6738C100.796 84.9848 98.3121 84.9852 97.5011 86.6738L94.1773 93.4085C94.0466 93.6733 93.7942 93.8568 93.502 93.8992L86.1216 94.9715C85.4413 95.0703 84.8186 95.445 84.4572 96.0296C83.8755 96.971 84.0458 98.1486 84.8009 98.8846L90.1787 104.127C90.39 104.333 90.4866 104.63 90.4365 104.921L89.1771 112.264C89.0579 112.959 89.2311 113.686 89.6971 114.215C90.4123 115.026 91.5591 115.224 92.4894 114.737L99.1369 111.242C99.3983 111.105 99.7103 111.105 99.9718 111.242L106.619 114.737C107.552 115.228 108.724 115.026 109.44 114.182C109.885 113.658 110.049 112.95 109.933 112.272L108.672 104.921C108.622 104.63 108.718 104.333 108.93 104.127L114.308 98.8846C115.063 98.1486 115.233 96.971 114.651 96.0296C114.29 95.445 113.667 95.0703 112.987 94.9715Z" fill="#E54442"/>
<path d="M2.11523 25.1247L12.5423 29.3099C14.225 29.9985 16.2315 29.1823 16.924 27.4382C17.6169 25.7114 16.7789 23.7497 15.0521 23.0565L4.62502 18.8714C2.89867 18.178 0.936485 19.0163 0.24334 20.7431C-0.449805 22.4699 0.388438 24.4316 2.11523 25.1247Z" fill="#14379F"/>
<path d="M21.7701 13.8714C23.0481 15.2271 25.181 15.2866 26.5325 14.0122C27.8867 12.736 27.9498 10.6037 26.6733 9.24958L18.9535 1.0592C17.6773 -0.294524 15.5451 -0.358089 14.1911 0.918366C12.8372 2.1946 12.7738 4.32681 14.0503 5.68098L21.7701 13.8714Z" fill="#14379F"/>
<path d="M82.2019 57.9858H82.5793C85.1703 57.9858 87.2783 55.8808 87.2807 53.2924V53.066C87.2807 53.0644 87.281 53.0629 87.281 53.0613V34.6412C87.281 32.0506 85.1719 29.9434 82.5793 29.9434H82.2019C79.6093 29.9434 77.5 32.0508 77.5 34.6412V53.2877C77.5 55.8785 79.6093 57.9858 82.2019 57.9858Z" fill="#14379F"/>
<path d="M60.563 41.0865H70.3191V23.9794C70.0896 17.6941 61.1879 17.4205 60.5547 23.6514C60.5576 23.7606 60.563 23.8693 60.563 23.9794V41.0865Z" fill="#14379F"/>
<path d="M53.3815 41.0864L53.361 23.9792C53.361 23.8701 53.3664 23.7623 53.3693 23.654C52.7822 17.6059 44.205 17.6113 43.6215 23.6551C43.6244 23.7645 43.6298 23.8732 43.6298 23.9833L43.6094 41.0864H53.3815Z" fill="#14379F"/>
<path d="M26.6758 41.145L36.4319 41.0866V23.9795C36.4319 23.8703 36.4373 23.7625 36.4402 23.654C35.8048 17.415 26.9035 17.6989 26.6758 23.9795V41.145Z" fill="#1537A0"/>
<path d="M41.3594 105.185V112.1C41.3594 113.697 42.6542 114.993 44.2523 114.994L45.5672 114.995L45.5656 114.996H68.9845C71.1142 114.996 72.8396 113.267 72.8347 111.137L72.799 105.185H41.3594V105.185Z" fill="#14379F"/>
<path d="M87.2799 64.1845C85.837 64.8085 84.2477 65.156 82.5784 65.156H82.2011C78.3863 65.156 74.988 63.3479 72.8136 60.5464C69.3901 64.6499 64.0959 66.9259 57.0543 67.327C57.8404 68.911 58.2847 70.6934 58.2847 72.5783V79.7909C58.1205 84.2907 51.8355 84.3509 51.623 79.885V72.5783C51.623 69.8056 49.4392 67.5337 46.701 67.3917H46.5099C46.376 67.3917 46.2441 67.383 46.1141 67.3686C45.6494 67.325 45.2127 67.1862 44.8233 66.9715C43.6659 66.3545 42.8865 65.1225 42.9229 63.712C42.9734 61.7534 44.6422 60.2216 46.6017 60.2216H54.7392C60.8227 60.2216 64.9418 58.8146 67.3321 55.9201C68.4349 54.5848 69.2248 52.8664 69.7118 50.7295C69.9999 49.4642 69.046 48.2559 67.7483 48.2559H57.1356C57.0841 48.2581 57.0338 48.2637 56.9819 48.2637H56.9777C56.9247 48.2637 56.873 48.2581 56.8204 48.2559H40.0257C40.0241 48.2559 40.0225 48.2561 40.021 48.2561H40.0167C40.0151 48.2561 40.0138 48.2559 40.0122 48.2559H31.8376C28.9847 48.2559 26.6719 50.5686 26.6719 53.4216V64.0556L28.5128 67.7857L34.4406 68.647C39.9221 69.4085 42.1608 76.3041 38.1749 80.1404L33.8854 84.3217L34.0291 85.1595C37.4481 88.901 39.8091 93.4754 40.7997 98.4466H73.3082C74.2435 93.62 76.4289 89.1249 79.6911 85.4331C84.5844 79.8954 87.2794 72.7729 87.2794 65.3774V64.1845H87.2799Z" fill="#14379F"/>
<path d="M31.1175 74.3148L23.1903 73.1627C22.5596 73.0711 22.0144 72.6751 21.7326 72.1035L18.1874 64.9201C17.4771 63.4811 15.4251 63.4811 14.7149 64.9201L11.1697 72.1035C10.8878 72.6749 10.3425 73.0711 9.71203 73.1627L1.78474 74.3148C0.196768 74.5454 -0.437298 76.497 0.711792 77.6172L6.44803 83.2088C6.90444 83.6535 7.11265 84.2945 7.00484 84.9225L5.65068 92.8179C5.37935 94.3996 7.03942 95.6057 8.45984 94.8589L15.5502 91.1313C16.1142 90.8348 16.788 90.8348 17.352 91.1313L24.4424 94.8589C25.8629 95.6057 27.5229 94.3996 27.2516 92.8179L25.8974 84.9227C25.7899 84.2947 25.9981 83.6539 26.4542 83.209L32.1905 77.6174C33.3398 76.497 32.7057 74.5454 31.1175 74.3148Z" fill="#E54442"/>
</g>
<defs>
<clipPath id="clip0_132_535">
<rect width="115" height="115" fill="white"/>
</clipPath>
</defs>
</svg>
