<svg width="107" height="107" viewBox="0 0 107 107" fill="none" xmlns="http://www.w3.org/2000/svg">
<g clip-path="url(#clip0_132_548)">
<path d="M98.0525 74.6575V72.8643C98.0525 67.918 94.1679 63.9082 89.376 63.9082H83.4083C79.419 63.9082 76.0607 66.6883 75.0469 70.4733C75.1883 70.4795 75.3304 70.4919 75.4736 70.5184L98.0525 74.6575Z" fill="#14379F"/>
<path d="M95.3132 93.1087H89.6708C94.5043 91.7129 98.0509 87.136 98.0509 81.7013V81.3633L74.7301 77.0879V81.7013C74.7301 87.1362 78.2767 91.7129 83.1102 93.1087H77.4726C71.02 93.1087 65.7891 98.5082 65.7891 105.169V105.523C65.7891 106.339 66.4295 107 67.2196 107H105.566C106.356 107 106.997 106.339 106.997 105.523V105.169C106.997 98.5082 101.766 93.1087 95.3132 93.1087Z" fill="#14379F"/>
<path d="M8.82031 73.7665C8.8247 73.7665 8.82888 73.7658 8.83327 73.7658H31.3449C31.2641 71.1343 30.0659 68.7942 28.2209 67.2373C28.6079 66.2204 28.5784 65.8298 28.5784 64.6712C28.5784 59.7378 24.7274 55.7328 19.9591 55.6848C14.2238 55.5187 9.62394 61.9736 11.6105 67.5129L11.6345 67.5125C9.96558 69.0632 8.89637 71.2852 8.82031 73.7665Z" fill="#14379F"/>
<path d="M28.4796 93.4631H23.1543C27.8864 92.0831 31.3554 87.5963 31.3554 82.2701V80.3682H8.83583C8.82894 80.3682 8.82246 80.3672 8.81556 80.3672V82.2701C8.81556 87.5963 12.2846 92.0831 17.0167 93.4631H11.6914C5.23872 93.4631 0.0078125 98.8626 0.0078125 105.523C0.0078125 106.339 0.648251 107 1.4383 107H38.7327C39.5227 107 40.1632 106.339 40.1632 105.523C40.1632 98.8626 34.9323 93.4631 28.4796 93.4631Z" fill="#14379F"/>
<path d="M65.9333 11.5239C66.0599 11.5082 66.1853 11.5024 66.3096 11.5022V10.5939C66.3096 4.743 61.7148 0 56.0465 0H50.7642C46.2772 0 42.4653 2.97339 41.0703 7.11461C41.1842 7.17312 41.2964 7.23685 41.4053 7.31061C41.5517 7.40819 50.7588 13.4076 65.9333 11.5239Z" fill="#14379F"/>
<path d="M32.6937 45.7104H73.6372C74.2446 45.7104 74.7369 45.2022 74.7369 44.5751V44.3457C74.7369 37.7278 69.5395 32.3629 63.1282 32.3629H56.6985C62.2282 30.8591 66.3068 25.6633 66.3068 19.4829V18.1241C56.3703 19.5168 45.5566 16.9878 40.4982 14.2871V19.4829C40.4982 25.6633 44.5766 30.8589 50.1065 32.3629H43.4248C36.9179 32.3629 31.5938 37.8584 31.5938 44.5753C31.5938 45.202 32.0862 45.7104 32.6937 45.7104Z" fill="#14379F"/>
<path d="M56.5571 84.1207V51.5674H50.1605V84.2164L38.6602 90.8964C40.5865 92.0251 42.1716 93.7007 43.2159 95.7208L53.4047 89.8886L62.6265 95.3796C63.7453 93.3549 65.4148 91.6983 67.426 90.6258L56.5571 84.1207Z" fill="#E54442"/>
</g>
<defs>
<clipPath id="clip0_132_548">
<rect width="107" height="107" fill="white"/>
</clipPath>
</defs>
</svg>
